<?xml version="1.0" standalone="no"?>
<!DOCTYPE svg PUBLIC "-//W3C//DTD SVG 20010904//EN"
 "http://www.w3.org/TR/2001/REC-SVG-20010904/DTD/svg10.dtd">
<svg version="1.0" xmlns="http://www.w3.org/2000/svg"
 width="77.000000pt" height="77.000000pt" viewBox="0 0 77.000000 77.000000"
 preserveAspectRatio="xMidYMid meet">

<g transform="translate(0.000000,77.000000) scale(0.100000,-0.100000)"
fill="#000000" stroke="none">
<path d="M0 385 l0 -385 385 0 385 0 0 385 0 385 -385 0 -385 0 0 -385z m455
251 c37 -25 52 -63 57 -151 3 -44 2 -71 -3 -60 -4 11 -8 45 -8 75 -1 69 -28
116 -78 136 -78 33 -152 -32 -154 -135 0 -31 -4 -65 -8 -76 -5 -11 -6 16 -3
60 5 92 20 128 65 156 37 23 92 21 132 -5z m-15 -56 c12 -12 20 -33 20 -55 0
-22 -8 -43 -20 -55 -12 -12 -33 -20 -55 -20 -22 0 -43 8 -55 20 -12 12 -20 33
-20 55 0 22 8 43 20 55 12 12 33 20 55 20 22 0 43 -8 55 -20z m-25 -260 c10
-11 24 -20 32 -20 7 0 13 -2 13 -4 0 -2 3 -13 6 -23 5 -17 5 -17 -6 0 -6 9
-16 17 -22 17 -6 0 -20 8 -30 17 -16 14 -22 15 -36 5 -9 -7 -27 -16 -39 -22
-13 -5 -23 -15 -23 -21 0 -7 -2 -10 -5 -7 -9 9 6 38 20 38 6 0 20 9 30 20 10
11 23 20 30 20 7 0 20 -9 30 -20z m-1 -55 c4 -12 2 -13 -14 -3 -14 9 -22 9
-34 -2 -14 -11 -16 -10 -10 4 8 20 50 21 58 1z"/>
<path d="M325 542 c-17 -44 12 -82 62 -82 46 0 80 51 55 85 -11 16 -111 13
-117 -3z"/>
</g>
</svg>
